<?xml version="1.0" encoding="UTF-8"?>
<svg id="Calque_1" data-name="Calque 1" xmlns="http://www.w3.org/2000/svg" viewBox="0 0 180 180">
  <defs>
    <style>
      .cls-1 {
        fill: #0e1633;
      }
    </style>
  </defs>
  <path class="cls-1" d="M173.73,55.99l-.02-.72c-.56-.46-48.03-48.03-48.56-48.53l-.86.45-34.28,17.96L55.71,7.2l-.86-.45c-.61.57-47.96,48.04-48.57,48.55-.02,1.42,0,67.98-.01,69.41.48.39,48.09,48.1,48.58,48.56l.86-.45,34.3-17.97,34.28,17.97.86.45,48.1-48.1-.45-.86.92-.28V55.99ZM36.72,92.15v-25.18l.54-1.02,38,11.87v14.32h-38.53ZM110.11,107.7h0c-.8.8-18.84,18.84-20.1,20.11-1.35-1.35-19.23-19.23-20.1-20.11h0l-3.42-3.42h47.04l-3.42,3.42ZM143.28,92.15h-38.54v-14.32l38-11.87.54,1.02v25.18Z"/>
</svg>