<?xml version="1.0" encoding="UTF-8"?>
<svg id="Calque_1" data-name="Calque 1" xmlns="http://www.w3.org/2000/svg" viewBox="0 0 200 180">
  <defs>
    <style>
      .cls-1 {
        fill: #0e1633;
      }
    </style>
  </defs>
  <path class="cls-1" d="M194.06,86.86l-61.59-13.82s37.64-21.73,37.64-21.73c.65-.37.87-1.2.49-1.84l-24.49-42.43c-.42-.77-1.58-.91-2.16-.24,0,0-42.57,46.22-42.57,46.22-.87-1.07,1.82-45.13-1.35-44.25,0,0-48.99,0-48.99,0-.88-.02-1.58.92-1.29,1.75,0,0,18.59,59.5,18.59,59.5l-36.93-21.32c-.65-.37-1.47-.15-1.84.49L5.07,91.62c-2.86,3.69,60.99,14.32,61.59,15.62l-37.16,21.46c-.65.37-.87,1.2-.49,1.84l24.49,42.43c1.95,4.1,42.99-45.75,44.52-45.74v43.24c0,.75.6,1.35,1.35,1.35h48.99c.88.02,1.58-.92,1.29-1.75,0,0-18.77-60.05-18.77-60.05l37.72,21.78c.62.37,1.49.14,1.84-.49-.55-1.04,28.29-44.48,23.62-44.42ZM108.94,96.88c-.05.86,5.72,3.6,6.26,4.07h-15.83c-2.45-.17-.97,6.19-1.35,7.39l-7.64-13.24c-1.08-2.19-5.66,2.14-6.89,2.42-.01-.35,8.54-13.92,7.58-13.93.04-.87-5.54-3.49-6.09-3.97h15.05c2.53.21.92-7.13,1.35-8.34l7.86,13.61c1.09,2.29,6.64-2.77,7.9-3,.07.26-9.27,15.14-8.19,14.98Z"/>
</svg>