<?xml version="1.0" encoding="UTF-8"?>
<svg id="Calque_1" data-name="Calque 1" xmlns="http://www.w3.org/2000/svg" viewBox="0 0 180 180">
  <defs>
    <style>
      .cls-1 {
        fill: #0e1633;
      }
    </style>
  </defs>
  <path class="cls-1" d="M173.14,54.9L125.1,6.86l-1.14-.47H56.03l-1.14.47L6.86,54.9l-.47,1.14v67.94l.47,1.14,48.04,48.04,1.14.47h67.94l1.14-.47,48.04-48.04.47-1.14V56.03l-.47-1.14ZM93.82,152.34l18.67-32.88h-23.98c-16.15-.11-29.25-13.28-29.25-29.46h-18.64c0,24.6,18.56,44.94,42.4,47.77l-4.11,13.69c-29.2-5.24-51.37-30.75-51.37-61.46,0-33.22,25.93-60.36,58.65-62.34l-18.67,32.88h23.98c16.15.11,29.25,13.28,29.25,29.46h18.64c0-24.6-18.56-44.94-42.4-47.77l4.11-13.69c29.2,5.24,51.37,30.75,51.37,61.46,0,33.22-25.93,60.36-58.65,62.34Z"/>
</svg>