<?xml version="1.0" encoding="UTF-8"?>
<svg id="Calque_1" data-name="Calque 1" xmlns="http://www.w3.org/2000/svg" viewBox="0 0 180 180">
  <defs>
    <style>
      .cls-1 {
        fill: #0e1633;
      }
    </style>
  </defs>
  <path class="cls-1" d="M138.63,153.94c-.13-2.69.24-5.04-.32-7.86-.13-.64-1.23-2.14-1.43-3.2-.47-2.41.13-3.77.2-5.87.1-2.79-3.69-4.89-4.49-7.32-1.07-3.25-.39-5.83-3.36-8.46-.9-.79-3.35-1.79-3.61-2.56-.48-1.46,1.47-5.97,1.94-7.62l-.19-1.07c-2.91-4.07-5.49-8.34-7.91-12.7h2.82l-5.67-9.98-1.12,1.98h-7.3l3.07-10.23h-1.45c-.57-.44-1.29-.91-1.65-1.25-1.07-1-4.97-4.67-5.32-5.72-.95-2.82.07-5.02,1.48-7.39-1.36-.91-1.87-2.49-3.24-3.45-1.75-1.23-4.07-1.2-5.72-2.24-1.22-.78-2.32-2.49-3.53-3.41-1.74-1.31-3.84-1.22-4.49-3.74-.44-1.73.02-1.91-1.29-3.58-1.09-1.38-2.59-2.18-4.07-3.1l-1.99-3.51h-3.21l1.11-3.7-4.97-8.76h-7.28c-.68-.11-1.32-.22-1.82-.33-2.25-.54-1.83-3.31-2.75-4.96-1.4-2.49-2.9-2.1-5.08-2.89-3.53-1.3-6.11-3.44-9.09-5.55-1.61-1.15-3.2-2.46-4.74-3.62-2.22-1.67-3.05-2.52-5.04-4.33-.87-.8-3.72-3.37-4.37-1.55,1.43,1.16,3.22,2.43,4.51,3.72,5.7,5.74,8.94,11.97,13.98,17.63,1.37,1.54,3.65,2.69,3.86,4.87.25,2.43-.93,4.18.66,6.53,2.46,3.61,10,5.38,13.47,8.89.18.18.34.38.49.58.18.25.34.52.5.78.32.55.61,1.1.96,1.57.56.72,2.1,1.84,2.32,2.58.03.11.05.24.06.36h-3.9l5.6,9.86h11.31l-5.23,9.21h6.74c.37.09.68.25.91.53,1.17,1.46,1.85,5.03,3.07,6.71,0,.12,0,.24-.02.37h8.04l-5.68,10.01c1.38,2.02,2.87,4.04,3.62,4.96,2.37,2.93,4.76,4.76,7.45,7.2.57.52.94.97,1.18,1.39h-4.47l7.72,13.59h8.97l-3.76,6.61c1.89,1.61,3.61,2.86,6.11,4.04.91.43,1.51-.03,1.67,1.67.22,2.48,1.16,4.19,2,6.05h-4.11l9.41,16.57c.16.43.42.9.82,1.45l.12.21h.03c.12.15.24.31.38.47.99,1.19,2.11,1.8,3.23,2.68.85.65,2.72,3.61,2.81,4.66.07.69-.3,1.62-.26,2.55.08,2.09,1.38,3.53,2.12,5.33.38.92.18,2.07,1.02,2.96l.99-.06c.2-.14.34-.62.37-.88.14-1.25-.24-2.52-.25-3.49-.02-.84.34-2.03.3-2.8-.22-3.78-3.07-8.04-3.24-11.39Z"/>
  <path class="cls-1" d="M160.64,125.02c-.53-2.08-.68-3.26-1.07-5.35-.75-4.01-4.79-6.81-5.48-9.43-.35-1.34.32-3.19.17-4.79-.22-2.19-1.68-3.41-1.96-5.23-.24-1.5.31-3.33-1.26-4.4-1.31-.91-2.04.09-3.11-2.03-.67-1.34-1.98-4.18-2.46-5.5-.48-1.33-.52-2.9-1.21-4.19.1-.84.3-1.71,1.21-1.95h3.44l-10.36-18.23h-4.22c-3.11-3.65-7.27-8.01-8.5-8.67-.71-.39-2.08-.44-2.5-1.35-.57-1.24.85-2.67.72-4.33-.12-1.64-1.09-2.3-1.31-3.3-.21-.92.21-1.7.13-2.23-.44-2.71-6.26-5.02-8.5-6.37-.73-.45-1.51-1.24-2.34-1.76-1.28-.8-2.54-.69-3.37-2.3-.75-1.48-.45-2.67-1.77-4.13-.36-.38-2.42-1.97-3.67-2.86-.39-.28-.7-.49-.85-.58-1.06-.6-2.14-.4-3.33-1.3-.27-.2-.49-.41-.68-.63-1.7-1.92-.84-4.4-4.45-6.57-3.17-1.91-5.54-2.09-8.36-5-2.29-2.36-2.44-2.97-5.45-4.72-.23-.13-.31-1.03-1.2-.67-1.74.53,1.86,2.69,2.07,2.9,1,.98,1.86,2.64,2.65,3.65,1.12,1.43,3.17,2.6,4.37,4.1,1.15,1.44,2.07,3.86,3.04,5.63h3.4l-2.26,3.99,5.98,10.54c.14.53.28,1.07.44,1.61.16.53,1.15,1.79,2.02,2.73l.03.05h.02c.43.47.83.85,1.06,1.02.54.38,1.17.31,1.95.89,1.47,1.08,3.39,4,5,5.53,2.11,2.01,4.03,3.01,5.64,5.67.07.12.12.24.19.36h-3.64l4.57,15.23h10.41l-2.17,3.82c.78.5,1.51.89,2.17,1.38.54.4,1.84,2.16,2.25,2.43.85.55,2.04-.09,2.29,1.57.38,2.55-.43,3.06,1.19,5.49,1.76,2.67,3.19,3.79,6.43,4.38.46.63-1.38,4.01-.17,5.48.65.79,2.7.72,3.57,1.89.39.52.56,1.15.65,1.8h-4.42l10.35,18.23h3.8c.09.16.18.31.25.44,1.49,2.59,5.25,7.98,7.22,10.12.15.16.9.63,1.07.6.92-.93.62-2.52.32-3.66Z"/>
  <path class="cls-1" d="M97.74,136.88h-1.34c-.2-.09-.37-.25-.44-.63-.34-1.73.57-2.07.96-3.15.5-1.37,1.08-5.94.77-7.32-.39-1.72-2.95-1.28-3.55-2.09-.32-.42-.34-1.81-.57-2.52-.75-2.33-3.29-3.31-4.68-4.82-.25-.27-.33-.57-.45-.84h4.01l-9.71-17.11-.2-.34-.44-.78h-3.72c-.25-1.43.83-3.5-.23-4.5-.19-.18-.62-.14-1.07-.6-1.88-1.95-.64-3.73-.91-6.03-.13-1.17-.88-2.62-1.66-3.48-.25-.27-.64-.65-1.11-1.1h-4.47l.94-3.12c-1.98-1.67-4.04-3.24-5.09-3.71l-4.72-8.32h-7.04l2.43-8.11-.17-.31h-4.39l-3.58-6.3h-6.96c-.66-1.23-1.55-2.62-2.58-3.46-.92-.76-2.19-1.12-2.96-1.92-1.05-1.08-1.18-2.75-1.94-3.72-1.83-2.3-5.72-2.54-7.56-4.26-.62-.57-.75-1.81-1.42-2.43-.17-.16-3.76-2.38-3.98-2.45-.25-.09-.5-.18-.77-.11l-.08,1.72c2.05,1.7,3.45,4.8,5.46,6.37,1.26.99,3.05,1.38,4.24,2.44,2.94,2.59,4.87,7.55,6.95,10.78,1.14,1.76,2.97,3.3,4.45,4.92h-4.79l10.35,18.23h7.18c1.95.26,3.52.4,4.3,3.41.39,1.5.56,2.16,1.04,3.59.94,2.83-.09,3.45-.06,5.71,0,.17.03.33.09.47h6.41l-3.19,5.61,7.49,13.19h6.13c.04.35-.08.72.1,1.22.47,1.33,2.1,3.3,2.4,4.56.12.51-.14.91-.04,1.3.14.54,1.48,2.05,1.82,3.06.52,1.56.53,3.3,1.19,4.98,1.81,4.58,7,7.83,9.31,12.02.38.69,1.13,2.42,1.79,4.07l.03.09,1.23,4.1c.17,2.13-.36,4.6,1.3,6.27.16.16.44.22.68.32.1.04.18.09.25.16,1.3,1.36,2.12,2.32,2.66,3.17,1.12,1.74,1.16,3.07,2.06,6.51,1.04,3.96,3.45,4.73,4.43,8.15.27.92.23,2.41.42,3.16.31,1.17,1.95,2.94,2.04.58.11-2.97-1.64-4.64-2.41-7.12-.92-2.95-1.8-7.69-1.96-11.28h5.69l-10.36-18.23Z"/>
</svg>