<?xml version="1.0" encoding="UTF-8"?>
<svg id="Calque_1" data-name="Calque 1" xmlns="http://www.w3.org/2000/svg" viewBox="0 0 380 180">
  <defs>
    <style>
      .cls-1 {
        fill: #0e1633;
      }
    </style>
  </defs>
  <path class="cls-1" d="M291.02,168.13h0c43.04-.06,78.03-35.08,78.03-78.13S334.05,11.93,291.02,11.87h0s-202.04,0-202.04,0h0c-43.04.06-78.03,35.08-78.03,78.13s35,78.07,78.03,78.13h0s202.04,0,202.04,0ZM89.08,137.86c-26.39,0-47.86-21.47-47.86-47.86s21.47-47.86,47.86-47.86h201.84c26.39,0,47.86,21.47,47.86,47.86s-21.47,47.86-47.86,47.86H89.08Z"/>
  <rect class="cls-1" x="10.95" y="11.87" width="9.95" height="9.95"/>
  <rect class="cls-1" x="10.95" y="158.18" width="9.95" height="9.95"/>
  <rect class="cls-1" x="359.09" y="11.87" width="9.95" height="9.95"/>
  <rect class="cls-1" x="359.09" y="158.18" width="9.95" height="9.95"/>
</svg>