<?xml version="1.0" encoding="UTF-8"?>
<svg id="Calque_1" data-name="Calque 1" xmlns="http://www.w3.org/2000/svg" viewBox="0 0 180 180">
  <defs>
    <style>
      .cls-1 {
        fill: #0e1633;
      }
    </style>
  </defs>
  <path class="cls-1" d="M97.06,83c-8.69,4.39-5.55,4.18-14.14,0,4.68,8.78,3.91,5.82.06,14.02,8.38-3.87,5.21-4.53,14.08.12-4.07-8.16-4.41-5.85,0-14.14Z"/>
  <path class="cls-1" d="M90,2.18c-115.43,1.97-115.41,173.68,0,175.63,115.43-1.97,115.41-173.68,0-175.63ZM145.75,103.34c-21.37,19.36-9.58,19.97-35.8,6.57l.07.49,9.35,17.82c.62,1.67-1.43,2.77-2.41,3.78-18.3,16.83-9.49,17.29-26.97,8.59l-11.17,5.84c-.93,2.16-17.1-16.23-17.93-16.43-.37-.5-.45-.86-.35-1.47,2.83-6.3,6.91-12.27,9.48-18.62l-18.02,9.45c-.91.53-1.48.15-2.2-.44-.12-.77-18.21-16.74-16.14-17.78,0,0,5.81-11.08,5.81-11.08-.23-1.12-7.07-11.74-5.73-12.75,0,0,16.38-16.42,16.38-16.42.73-1.96,18.93,9.32,19.9,9.33.24-1.84-11.33-18.66-9.02-20.22.83-.21,16.33-17.59,17.33-16.45,0,0,11.63,5.98,11.63,5.98l11.68-5.98c.75-1.33,16.71,16.41,17.39,16.51,2.29,1.25-9.37,18.62-9.08,20.15.94-.05,19.18-11.15,19.84-9.39.34.97,18.32,16.76,16.61,17.99,0,0-5.65,10.62-5.65,10.62-.47,3.85,7.63,10.67,5,13.88Z"/>
</svg>