<?xml version="1.0" encoding="UTF-8"?>
<svg id="Calque_1" data-name="Calque 1" xmlns="http://www.w3.org/2000/svg" viewBox="0 0 180 180">
  <defs>
    <style>
      .cls-1 {
        fill: #0e1633;
      }
    </style>
  </defs>
  <path class="cls-1" d="M174.28,81.09c-2.67-7.69-9.99-28.81-12.57-36.27-2.91.12-9.22.39-12.17.51.95-2.81,2.96-8.77,3.9-11.54-7.45-5.29-24.01-17.04-31.3-22.22-2.28,1.78-7.17,5.59-9.48,7.39-.84-2.82-2.62-8.74-3.45-11.51h-38.39c-.83,2.76-2.61,8.71-3.45,11.51-2.32-1.81-7.19-5.6-9.48-7.39-7.24,5.14-23.91,16.97-31.3,22.22.93,2.76,2.96,8.74,3.9,11.54-2.97-.12-9.25-.39-12.17-.51l-11.87,34.23-.71,2.04c2.62,1.89,9.63,6.95,12.34,8.9-2.74,1.98-9.69,7-12.34,8.91l.81,2.33,11.77,33.94c2.91-.12,9.22-.39,12.17-.52-.95,2.81-2.96,8.77-3.9,11.54,7.45,5.29,24.01,17.04,31.3,22.22,2.28-1.77,7.17-5.59,9.48-7.39.85,2.82,2.62,8.74,3.45,11.51h38.39c.83-2.77,2.61-8.71,3.45-11.52,2.32,1.81,7.19,5.61,9.48,7.39,7.24-5.14,23.91-16.97,31.3-22.22-.93-2.76-2.96-8.75-3.9-11.54,2.97.13,9.25.39,12.17.52l.71-2.04,11.87-34.23c-2.62-1.89-9.63-6.95-12.34-8.91,2.74-1.97,9.69-7,12.34-8.9ZM106.21,89.83c-2.71,9.03-5.98,19.92-8.68,28.92h-15.06c-2.72-9.02-5.99-19.97-8.71-29.02,2.81-8.81,5.9-19.61,8.61-28.47h15.27c2.72,8.86,5.78,19.65,8.61,28.46l-.03.11Z"/>
</svg>