<?xml version="1.0" encoding="UTF-8"?>
<svg id="Calque_1" data-name="Calque 1" xmlns="http://www.w3.org/2000/svg" viewBox="0 0 180 180">
  <defs>
    <style>
      .cls-1 {
        fill: #f4ff00;
      }
    </style>
  </defs>
  <path class="cls-1" d="M173.5,56.8l-31.45-19.83-18.02-11.36-18.57-11.71c-.65-.41-1.52-.64-2.44-.64h-26.03c-.91,0-1.79.23-2.44.64L6.49,56.8c-.3.19-.47.44-.49.7v56.37h.01c.02.24.19.48.48.67l81.57,51.87c.34.22.78.32,1.21.32s.89-.11,1.22-.32l83-51.87c.3-.19.46-.43.49-.67h.01v-56.37c-.04-.25-.19-.5-.5-.7ZM89.99,25.63c29.27,0,52.99,14.16,52.99,31.61s-23.72,31.61-52.99,31.61-52.98-14.15-52.98-31.61,23.72-31.61,52.98-31.61ZM7.96,113.14v-53.67h.34l80.35,50.66-.5,54.02L7.96,113.14ZM172.04,113.14l-81.5,50.94.5-53.79c.06-.03.12-.04.18-.07l80.49-50.74h.34v53.67Z"/>
  <polygon class="cls-1" points="80.6 47.16 56.37 39.59 56.02 40.24 56.02 56.3 80.6 56.3 80.6 47.16"/>
  <polygon class="cls-1" points="75 64.03 77.18 66.21 77.18 66.21 77.85 66.89 78.53 67.57 90 79.04 101.47 67.57 102.14 66.89 102.82 66.21 102.82 66.21 105 64.03 100.64 64.03 99.29 64.03 97.93 64.03 82.06 64.03 80.71 64.03 79.36 64.03 75 64.03"/>
  <polygon class="cls-1" points="123.97 40.24 123.63 39.59 99.4 47.16 99.4 56.3 123.97 56.3 123.97 40.24"/>
</svg>