<?xml version="1.0" encoding="UTF-8"?>
<svg id="Calque_1" data-name="Calque 1" xmlns="http://www.w3.org/2000/svg" viewBox="0 0 180 180">
  <defs>
    <style>
      .cls-1 {
        fill: #f4ff00;
      }
    </style>
  </defs>
  <path class="cls-1" d="M174.28,89.73c0-.1,0-.2,0-.3,0-.07,0-.14,0-.22-.27-22.1-9.03-42.89-24.67-58.53-15.63-15.63-36.41-24.39-58.51-24.67,0,0,0,0-.01,0-.36,0-.71-.01-1.07-.01s-.71,0-1.07.01c-22.1.27-42.88,9.03-58.52,24.67-15.63,15.63-24.39,36.41-24.67,58.51,0,0,0,0,0,.01,0,.09,0,.18,0,.27,0,.08,0,.17,0,.25,0,.09,0,.18,0,.27,0,.09,0,.18,0,.27,0,.08,0,.17,0,.25,0,.09,0,.18,0,.27,0,0,0,0,0,.01.28,22.1,9.04,42.88,24.67,58.51,15.64,15.64,36.43,24.4,58.52,24.67.36,0,.71.01,1.07.01s.71,0,1.07-.01c0,0,0,0,.01,0,22.1-.28,42.88-9.04,58.51-24.67,15.64-15.64,24.4-36.43,24.67-58.53,0-.07,0-.14,0-.22,0-.1,0-.2,0-.3,0-.09,0-.18,0-.27,0-.09,0-.18,0-.27ZM115.41,35.01c2.78.63,5.49,1.37,8.14,2.2h-7.45c-.23-.74-.46-1.48-.69-2.2ZM121.2,90c0,5.08-.18,10.08-.51,14.98l-24.92-12.62h16.2l7.87-26.57c.88,7.78,1.34,15.89,1.35,24.2ZM84.74,59.13c1.75-.04,3.5-.07,5.26-.07,1.39,0,2.77.02,4.15.04l-9.41,16.64v-16.61ZM59.68,92.37l-.82,2.76c-.02-.92-.04-1.84-.05-2.76h.87ZM84.74,109.01l10,11.87c-1.57.03-3.15.05-4.74.05-1.76,0-3.51-.03-5.26-.07v-11.85ZM137.49,42.79c3.29,6.62,5.85,13.83,7.63,21.48-6.89-2.26-14.68-4.05-23.24-5.35l6-20.24c3.32,1.21,6.54,2.58,9.61,4.11ZM106.53,37.21l-11,19.46c-1.83-.04-3.68-.07-5.53-.07s-3.51.03-5.26.07v-19.45h-18.84c.28-.91.57-1.8.87-2.68,15-3.08,31.43-3.08,46.45,0,.3.88.59,1.77.87,2.68h-7.57ZM63.89,37.21h-.94l-6.51,21.96c-7.88,1.27-15.12,2.98-21.57,5.1,1.78-7.66,4.34-14.87,7.63-21.48,6.79-3.38,14.21-5.99,22.08-7.78-.24.72-.47,1.46-.69,2.2ZM55.66,61.8l-9.06,30.56h10.27c.03,2.91.1,5.79.24,8.65l-4.91,16.56c-6.5-1.23-12.52-2.78-17.96-4.63-1.52-7.42-2.3-15.14-2.32-22.95.02-7.82.8-15.53,2.32-22.95,6.39-2.17,13.58-3.93,21.41-5.24ZM51.51,119.95l-4.9,16.54h15.53c.74,2.96,1.56,5.79,2.44,8.49-7.87-1.79-15.29-4.39-22.08-7.78-3.29-6.61-5.85-13.83-7.63-21.48,5.08,1.66,10.65,3.07,16.64,4.22ZM64.13,136.49h20.61v-13.15c1.75.04,3.5.07,5.26.07,2.28,0,4.54-.04,6.78-.1l17.07,20.25c-.21.64-.41,1.29-.62,1.91-15.02,3.08-31.45,3.08-46.45,0-.96-2.84-1.84-5.84-2.64-8.97ZM136.95,118.08c2.84-.72,5.57-1.5,8.17-2.35-1.78,7.65-4.34,14.87-7.63,21.48-5.43,2.71-11.28,4.91-17.45,6.6l16.91-25.73ZM138.97,115.01l.38-.58-16.77-8.49c.36-5.13.55-10.36.55-15.67,0-.09,0-.18,0-.27,0-.09,0-.18,0-.27,0-9.79-.62-19.33-1.83-28.41,9.04,1.36,17.25,3.28,24.44,5.73,1.53,7.48,2.31,15.17,2.32,22.95-.02,7.78-.79,15.47-2.32,22.95-2.16.74-4.43,1.42-6.77,2.06ZM147.26,64.98c-1.62-7.33-3.95-14.28-6.93-20.71,2.62,1.43,5.14,2.97,7.5,4.61,12.3,8.54,20.4,19.53,23.3,31.41-4.06-5.91-11.99-11.08-23.41-15.15l-.46-.16ZM148.23,32.04c11.18,11.18,18.69,24.8,22.08,39.85-4.13-9.27-11.37-17.64-21.37-24.59-3.13-2.17-6.5-4.17-10.01-5.95-1.79-3.52-3.79-6.89-5.96-10.01-6.95-10-15.31-17.24-24.57-21.37,15.05,3.39,28.66,10.91,39.83,22.07ZM131.39,32.44c1.64,2.37,3.19,4.88,4.62,7.5-6.6-3.06-13.75-5.44-21.31-7.07-.04-.1-.07-.21-.11-.32-4.14-11.62-9.41-19.62-15.45-23.62,12.2,2.72,23.5,10.91,32.25,23.5ZM89.72,7.94c.2,0,.4,0,.61,0,8.62.21,16.46,8.88,22.17,24.49-7.27-1.42-14.83-2.15-22.49-2.15s-15.21.73-22.49,2.15c5.71-15.63,13.57-24.31,22.2-24.49ZM65.45,32.46l-.14.42c-7.55,1.63-14.7,4-21.31,7.06,1.43-2.62,2.97-5.14,4.61-7.5,8.75-12.61,20.07-20.8,32.29-23.51-6.08,4.01-11.34,12-15.46,23.53ZM31.77,32.04c11.17-11.17,24.8-18.69,39.85-22.08-9.27,4.13-17.64,11.37-24.59,21.37-2.17,3.13-4.17,6.5-5.96,10.02-3.51,1.78-6.88,3.78-10.01,5.95-10,6.95-17.24,15.32-21.36,24.58,3.39-15.05,10.91-28.67,22.07-39.83ZM32.16,48.89c2.38-1.65,4.89-3.19,7.5-4.61-2.98,6.44-5.31,13.38-6.93,20.71l-.55.19c-11.35,4.05-19.26,9.21-23.32,15.12,2.9-11.88,11-22.86,23.3-31.4ZM32.04,67.83c-1.34,7.1-2.03,14.46-2.03,21.9,0,.09,0,.18,0,.27,0,.09,0,.18,0,.27,0,7.44.69,14.8,2.03,21.9-15.57-5.71-24.2-13.56-24.38-22.17.18-8.62,8.81-16.46,24.38-22.17ZM32.18,114.82l.55.19c1.62,7.32,3.94,14.27,6.93,20.71-2.61-1.42-5.12-2.96-7.5-4.61-12.3-8.54-20.4-19.53-23.3-31.4,4.06,5.91,11.97,11.07,23.32,15.12ZM31.77,147.96c-11.17-11.17-18.68-24.79-22.07-39.83,4.12,9.26,11.36,17.63,21.36,24.58,3.13,2.17,6.5,4.17,10.01,5.95,1.78,3.52,3.79,6.89,5.96,10.02,6.95,10,15.32,17.24,24.59,21.37-15.05-3.39-28.67-10.9-39.85-22.08ZM48.61,147.56c-1.64-2.37-3.19-4.88-4.61-7.5,6.6,3.06,13.76,5.44,21.31,7.06l.14.42c4.11,11.53,9.38,19.52,15.46,23.53-12.22-2.71-23.54-10.91-32.29-23.51ZM90.32,172.06c-.2,0-.4,0-.61,0-8.63-.19-16.49-8.86-22.2-24.49,7.28,1.42,14.84,2.15,22.49,2.15s15.22-.73,22.49-2.15c-5.7,15.61-13.55,24.28-22.17,24.49ZM114.59,147.44c.04-.11.07-.21.11-.32.61-.13,1.21-.27,1.81-.42l.92,1.09,1.03-1.56c6.17-1.56,12.06-3.63,17.55-6.18-1.43,2.62-2.97,5.14-4.62,7.5-8.74,12.59-20.04,20.78-32.25,23.5,6.03-4,11.3-12.01,15.45-23.62ZM148.23,147.96c-11.17,11.17-24.78,18.68-39.83,22.07,9.26-4.12,17.63-11.36,24.57-21.37,2.17-3.12,4.17-6.49,5.96-10.01,3.51-1.78,6.88-3.78,10.01-5.95,10-6.95,17.24-15.32,21.37-24.59-3.39,15.05-10.9,28.67-22.08,39.85ZM147.84,131.11c-2.36,1.64-4.88,3.18-7.5,4.61,2.98-6.43,5.3-13.38,6.93-20.71l.46-.16c11.42-4.07,19.35-9.24,23.41-15.15-2.9,11.88-11,22.86-23.3,31.41ZM147.96,112.17c1.35-7.11,2.04-14.46,2.04-21.9,0-.09,0-.18,0-.27,0-.09,0-.18,0-.27,0-7.44-.69-14.79-2.04-21.9,15.56,5.71,24.2,13.56,24.38,22.17-.18,8.62-8.81,16.46-24.38,22.17Z"/>
</svg>