<?xml version="1.0" encoding="UTF-8"?>
<svg id="Calque_1" data-name="Calque 1" xmlns="http://www.w3.org/2000/svg" viewBox="0 0 180 180">
  <defs>
    <style>
      .cls-1 {
        fill: #f4ff00;
      }
    </style>
  </defs>
  <path class="cls-1" d="M50.97,151.04c0,.19.08.37.22.49.41,1,21.73,22.32,22.73,22.73,1.41.43,30.72.43,32.15,0,.86-.27,22.46-21.88,22.73-22.73.62-.33.01-22.02.22-22.5.51-.2,22.16.4,22.5-.22.86-.27,22.46-21.88,22.73-22.73.43-1.42.43-30.72,0-32.15-.41-1-21.73-22.32-22.73-22.73-.33-.62-22.02-.01-22.5-.22-.2-.51.4-22.16-.22-22.5-.41-1-21.73-22.32-22.73-22.73-1.42-.43-30.72-.43-32.15,0-1,.41-22.32,21.73-22.73,22.73-.62.33-.01,22.02-.22,22.5-.51.2-22.16-.4-22.5.22-1,.41-22.32,21.73-22.73,22.73-.43,1.42-.43,30.72,0,32.15.41,1,21.73,22.32,22.73,22.73.33.62,22.02.01,22.5.22v22.01ZM90,80.91l9.09,9.09-9.09,9.09-9.09-9.09,9.09-9.09Z"/>
</svg>