<?xml version="1.0" encoding="UTF-8"?>
<svg id="Calque_1" data-name="Calque 1" xmlns="http://www.w3.org/2000/svg" viewBox="0 0 180 180">
  <defs>
    <style>
      .cls-1 {
        fill: #f4ff00;
      }
    </style>
  </defs>
  <path class="cls-1" d="M163.03,47.95l-23.88-42.05h-16.82l8.39,27.97c-16.69,1.39-31.34,10.07-40.73,22.86-9.39-12.78-24.03-21.47-40.72-22.86l8.39-27.97h-16.82l-23.88,42.05,23.87,42.05-23.87,42.05,23.88,42.05h16.82l-8.39-27.97c16.69-1.39,31.34-10.07,40.73-22.86,9.39,12.78,24.03,21.47,40.72,22.86l-8.39,27.97h16.82l23.88-42.05-23.87-42.05,23.87-42.05ZM132.65,55.61l-10.32,34.39h0,0s0,0,0,0h0l10.32,34.39c-17.7-1.41-31.67-16.23-31.74-34.27,0-.04,0-.08,0-.12h0s0,0,0,0c0,0,0,0,0,0h0s0-.08,0-.11c.06-18.04,14.04-32.86,31.74-34.27ZM42.01,7.9h12.97l-7.62,25.39-.71,2.36,2.46.2c13.52,1.12,26.08,7.26,35.35,17.28,1.56,1.69,2.99,3.46,4.32,5.31-4.46,6.57-7.56,14.13-8.91,22.27-3.9-14.6-16.71-25.85-32.36-27.1l-2.92-.23.84,2.8,9.55,31.82h-12.97l-22.74-40.05L42.01,7.9ZM47.35,124.39l10.32-34.39h0,0s0,0,0,0h0l-10.32-34.39c17.7,1.41,31.68,16.23,31.74,34.27,0,.04,0,.08,0,.11h0s0,0,0,0c0,0,0,0,0,0h0s0,.08,0,.11c-.06,18.04-14.04,32.86-31.74,34.27ZM137.99,172.1h-12.97l7.62-25.39.71-2.36-2.46-.2c-13.52-1.12-26.08-7.26-35.35-17.28-1.56-1.69-2.99-3.46-4.32-5.31,4.46-6.57,7.56-14.13,8.91-22.27,3.9,14.6,16.71,25.85,32.36,27.1l2.92.23-.84-2.8-9.55-31.82h12.97l22.74,40.05-22.74,40.05Z"/>
</svg>