<?xml version="1.0" encoding="UTF-8"?>
<svg id="Calque_1" data-name="Calque 1" xmlns="http://www.w3.org/2000/svg" viewBox="0 0 180 180">
  <defs>
    <style>
      .cls-1 {
        fill: #f4ff00;
      }
    </style>
  </defs>
  <path class="cls-1" d="M118.85,164.39l6.34-11.19,25.03,7.51v-23.81l23.56-13.38V56.48l-23.56-13.37v-24.78l-25.5,7.65c-2.8-4.93-8.44-14.86-11.23-19.77h-46.79c-2.79,4.92-8.45,14.89-11.26,19.83l-25.68-7.7v24.78l-23.56,13.37v67.04l23.56,13.38v23.81l25.21-7.57c2.91,5.13,8.84,15.56,11.73,20.66h46.79l5.35-9.41ZM98.8,68.91c1.83,6.11,4.52,15.04,6.32,21.08-1.93,6.46-4.84,16.12-6.79,22.64l-8.33,2.5-8.09-2.42c-1.95-6.56-4.86-16.22-6.81-22.71,2-6.69,4.78-15.98,6.81-22.71l8.09-2.42,8.34,2.49.47,1.55Z"/>
</svg>