<?xml version="1.0" encoding="UTF-8"?>
<svg id="Calque_1" data-name="Calque 1" xmlns="http://www.w3.org/2000/svg" viewBox="0 0 470 90">
  <defs>
    <style>
      .cls-1 {
        fill: #f4ff00;
      }
    </style>
  </defs>
  <path class="cls-1" d="M13.91,15.47v59.07h442.18V15.47H13.91ZM38.45,72.53h-13.22V17.47h13.22v55.07ZM59.45,17.47h5.73v55.07h-5.73V17.47ZM75.18,17.47h2.7v55.07h-2.7V17.47ZM82.39,17.47h8.9v55.07h-8.9V17.47ZM101.28,17.47h4.43v55.07h-4.43V17.47ZM110.97,17.47h8.88v55.07h-8.88V17.47ZM140.85,17.47h8.91v55.07h-8.91V17.47ZM150.76,17.47h10.61v55.07h-10.61V17.47ZM168.12,17.47h8.06v55.07h-8.06V17.47ZM177.19,17.47h12.01v55.07h-12.01V17.47ZM196.7,17.47h5.91v55.07h-5.91V17.47ZM203.61,17.47h13.42v55.07h-13.42V17.47ZM233.12,17.47h11.73v55.07h-11.73V17.47ZM253.85,17.47h1.6v55.07h-1.6V17.47ZM256.46,17.47h1.49v55.07h-1.49V17.47ZM266.2,17.47h4.84v55.07h-4.84V17.47ZM278.54,17.47h3.34v55.07h-3.34V17.47ZM282.88,17.47h1.26v55.07h-1.26V17.47ZM290.89,17.47h6.34v55.07h-6.34V17.47ZM303.23,17.47h5.07v55.07h-5.07V17.47ZM309.3,17.47h1.02v55.07h-1.02V17.47ZM315.57,17.47h7.84v55.07h-7.84V17.47ZM327.92,17.47h6.81v55.07h-6.81V17.47ZM335.72,17.47h.79v55.07h-.79V17.47ZM340.26,17.47h9.34v55.07h-9.34V17.47ZM352.6,17.47h8.54v55.07h-8.54V17.47ZM362.15,17.47h13.41v55.07h-13.41V17.47ZM396.55,17.47h17.44v55.07h-17.44V17.47ZM414.99,17.47h5.88v55.07h-5.88V17.47ZM430.87,17.47h9.55v55.07h-9.55V17.47ZM15.91,17.47h6.32v55.07h-6.32V17.47ZM454.09,72.53h-12.68V17.47h12.68v55.07Z"/>
</svg>