<?xml version="1.0" encoding="UTF-8"?>
<svg id="Calque_1" data-name="Calque 1" xmlns="http://www.w3.org/2000/svg" viewBox="0 0 180 180">
  <defs>
    <style>
      .cls-1 {
        fill: #f4ff00;
      }
    </style>
  </defs>
  <path class="cls-1" d="M166.23,95.09l-.1-.38s0,0,0,0h0c-2.12-7.37-10.26-13.77-23.61-18.54l-.51-.18-7.76-14.81,12.02-22.95c.19-.38.12-.83-.18-1.14L114.08,5.08c-.31-.3-.76-.37-1.13-.18l-22.95,12.02-22.95-12.02c-.38-.19-.83-.12-1.13.18l-16,16-16.01,16c-.3.31-.36.76-.17,1.14l12.01,22.95-7.75,14.81-.6.21c-13.27,4.73-21.4,11.13-23.53,18.51l-.1.38c-.29,1.12-.44,2.28-.44,3.44,0,.32,0,.64,0,.97,0,.01,0,.02,0,.04.26,20.1,8.23,38.99,22.44,53.21,14.23,14.23,33.14,22.2,53.24,22.44.33,0,.65.01.97.01s.65,0,.97-.01c.01,0,.03,0,.04,0,20.09-.26,38.99-8.23,53.2-22.44,14.23-14.23,22.2-33.14,22.44-53.25,0-.33.01-.65.01-.97,0-1.16-.15-2.32-.44-3.44ZM142.83,98.53c0,7.17-.71,14.24-2.12,21.13-6.55,2.23-14.04,3.99-22.3,5.22.59-4.31,1.02-8.74,1.31-13.26l22.67-22.67c.28,3.16.43,6.36.43,9.58ZM37.6,88.95l12.32,12.31,10.35,10.35c.29,4.52.72,8.96,1.31,13.27-8.23-1.23-15.72-2.99-22.3-5.22-1.4-6.83-2.12-13.93-2.12-21.13,0-3.22.15-6.41.44-9.58ZM65.93,117.26c.19.19.43.28.69.28.15,0,.31-.03.44-.11l22.95-12.01,22.95,12.01c.14.08.29.11.44.11.25,0,.5-.09.69-.28l3.74-3.74c-.29,3.96-.69,7.84-1.21,11.62-8.46,1.18-17.41,1.78-26.61,1.78s-18.09-.6-26.61-1.78c-.53-3.78-.92-7.68-1.21-11.63l3.76,3.76ZM105.04,70.71l-15.04,15.04-12.29-12.29-.69-.68-2.07-2.07c.55-.04,1.1-.1,1.65-.13h26.78c.56.04,1.1.09,1.65.13ZM61.84,126.69c1.19,8.14,2.89,15.56,5.04,22.11-7.16-1.62-13.91-3.99-20.09-7.07-3.07-6.17-5.44-12.92-7.07-20.08,6.53,2.15,13.93,3.84,22.11,5.05ZM63.65,126.94c8.41,1.14,17.26,1.73,26.35,1.73s17.96-.59,26.35-1.73c-1.23,8.23-2.98,15.73-5.22,22.3-13.66,2.8-28.61,2.8-42.26,0-2.23-6.57-3.99-14.06-5.22-22.3ZM118.16,126.69c8.14-1.2,15.57-2.89,22.11-5.05-1.62,7.16-3.99,13.91-7.07,20.08-6.16,3.07-12.91,5.44-20.09,7.07,2.15-6.54,3.84-13.94,5.04-22.11ZM99.51,53.51l24.51-7.66.35.66v16.25h-24.86v-9.24ZM55.63,46.5l.34-.66,24.51,7.66v9.24h-24.85v-16.25ZM36.79,78.3l-3.05,5.82c-.11.21-.14.44-.08.66.03.18.12.34.25.48l.89.89,1.2,1.2c-.38,3.69-.58,7.42-.58,11.19,0,6.96.66,13.83,1.95,20.45-14.37-5.25-22.29-12.5-22.29-20.45s7.71-14.99,21.71-20.23ZM37.4,120.86c.13.05.25.09.38.13,1.48,6.86,3.64,13.37,6.43,19.38-2.37-1.29-4.66-2.69-6.82-4.19-11.46-7.96-18.91-18.23-21.38-29.33,3.64,5.49,10.9,10.28,21.4,14.02ZM37.03,151.5c-10.16-10.16-17-22.55-20.08-36.24,3.75,8.42,10.34,16.04,19.44,22.36,2.85,1.97,5.91,3.79,9.11,5.41,1.62,3.2,3.44,6.27,5.42,9.11,6.32,9.1,13.94,15.69,22.37,19.44-13.69-3.08-26.08-9.92-36.25-20.09ZM52.35,151.15c-1.5-2.15-2.9-4.44-4.2-6.83,6.01,2.79,12.52,4.95,19.38,6.43l.13.38c3.74,10.49,8.53,17.76,14.06,21.41-11.12-2.47-21.41-9.92-29.37-21.39ZM90.06,173.44s-.08,0-.12,0c-7.93-.04-15.15-7.95-20.4-22.29,6.62,1.29,13.49,1.95,20.45,1.95s13.84-.66,20.45-1.95c-5.24,14.33-12.46,22.24-20.39,22.28ZM112.37,151.04c.03-.1.06-.19.1-.29,6.87-1.48,13.38-3.64,19.39-6.43-1.3,2.38-2.71,4.68-4.2,6.83-7.95,11.45-18.23,18.9-29.34,21.38,5.49-3.64,10.28-10.92,14.05-21.49ZM142.97,151.5c-10.16,10.16-22.55,17-36.24,20.08,8.42-3.75,16.04-10.34,22.35-19.44,1.97-2.84,3.79-5.91,5.42-9.11,3.2-1.62,6.26-3.44,9.11-5.41,9.1-6.32,15.69-13.94,19.44-22.37-3.08,13.69-9.92,26.09-20.09,36.25ZM142.62,136.18c-2.15,1.49-4.44,2.9-6.82,4.19,2.78-6.01,4.94-12.52,6.43-19.38.13-.04.25-.09.38-.13.05-.02.11-.04.16-.06,10.41-3.73,17.62-8.5,21.24-13.96-2.48,11.1-9.93,21.38-21.38,29.34ZM142.63,118.98c1.29-6.63,1.95-13.5,1.95-20.45,0-3.76-.2-7.5-.58-11.19l2.09-2.09c.13-.14.22-.31.26-.48.05-.21.03-.45-.08-.66l-3.04-5.81c13.99,5.23,21.7,12.38,21.7,20.22s-7.92,15.2-22.29,20.45Z"/>
</svg>