<?xml version="1.0" encoding="UTF-8"?>
<svg id="Calque_1" data-name="Calque 1" xmlns="http://www.w3.org/2000/svg" viewBox="0 0 180 180">
  <defs>
    <style>
      .cls-1 {
        fill: #f4ff00;
      }
    </style>
  </defs>
  <path class="cls-1" d="M172.8,55.71l-36.95-11.56-11.56-36.95-34.28,17.96L55.71,7.2l-11.55,36.95L7.2,55.69l17.97,34.3L7.2,124.31l36.96,11.53,11.55,36.96,34.3-17.97,34.28,17.97,11.56-36.96,36.95-11.55-17.96-34.3,17.96-34.28ZM36.72,92.15v-25.18l.54-1.02,38,11.87v14.32h-38.54ZM110.11,107.7h0c-.8.8-18.84,18.84-20.1,20.11-1.35-1.35-19.22-19.23-20.1-20.11h0l-3.42-3.42h47.04l-3.42,3.42ZM143.28,92.15h-38.54v-14.32l38-11.87.54,1.02v25.18Z"/>
</svg>