<?xml version="1.0" encoding="UTF-8"?>
<svg id="Calque_1" data-name="Calque 1" xmlns="http://www.w3.org/2000/svg" viewBox="0 0 180 180">
  <defs>
    <style>
      .cls-1 {
        fill: #f4ff00;
      }
    </style>
  </defs>
  <polygon class="cls-1" points="158.18 90.01 177.08 126.06 138.22 138.22 126.06 177.08 90.01 158.18 53.94 177.08 41.78 138.22 2.92 126.06 21.82 90.01 2.92 53.94 41.78 41.78 53.94 2.92 90.01 21.82 126.06 2.92 138.22 41.78 177.08 53.94 158.18 90.01"/>
  <polygon class="cls-1" points="158.18 90.01 177.08 126.06 138.22 138.22 126.06 177.08 90.01 158.18 53.94 177.08 41.78 138.22 2.92 126.06 21.82 90.01 2.92 53.94 41.78 41.78 53.94 2.92 90.01 21.82 126.06 2.92 138.22 41.78 177.08 53.94 158.18 90.01"/>
</svg>