<?xml version="1.0" encoding="UTF-8"?>
<svg id="Calque_1" data-name="Calque 1" xmlns="http://www.w3.org/2000/svg" viewBox="0 0 180 180">
  <defs>
    <style>
      .cls-1 {
        fill: #f4ff00;
      }
    </style>
  </defs>
  <path class="cls-1" d="M144.98,174.92l-44.73-1.11-10.14-33.08-10.05,32.78-44.73,1.11-6.9-23.04-23.04-6.9,1.11-44.73,32.78-10.05-33.09-10.14-1.11-44.73,23.04-6.9,6.9-23.04,44.73,1.11,10.14,33.08,10.05-32.78,44.73-1.11,6.9,23.04,23.04,6.9-1.11,44.73-32.78,10.05,33.09,10.14,1.11,44.73-23.04,6.9-6.9,23.04ZM101.74,171.84l41.76,1.04,6.77-22.61,22.61-6.77-1.04-41.76-37.95-11.63,37.64-11.54,1.04-41.76-22.61-6.77-6.77-22.61-41.76,1.04-11.54,37.64-11.63-37.95-41.76-1.04-6.77,22.61-22.61,6.77,1.04,41.76,37.95,11.63-37.64,11.54-1.04,41.76,22.61,6.77,6.77,22.61,41.76-1.04,11.54-37.64,11.63,37.95Z"/>
</svg>