<?xml version="1.0" encoding="UTF-8"?>
<svg id="Calque_1" data-name="Calque 1" xmlns="http://www.w3.org/2000/svg" viewBox="0 0 180 180">
  <defs>
    <style>
      .cls-1 {
        fill: #ff1300;
      }
    </style>
  </defs>
  <path class="cls-1" d="M159.22,47.11l-9.05,5.14-2.12-3.74c2.21-3.91,10.61-18.69,12.98-22.86h-25.95l-11.62-20.47H56.79l-11.62,20.47h-25.27c2.3,4.05,10.49,18.48,12.64,22.25l-2.52,4.44c-5.65-3.21-19.72-11.19-25.52-14.49v103.01c4.97-2.82,20.26-11.5,24.98-14.18l3.06,5.39c-.95,1.67-11.39,20.05-12.64,22.25h25.27l11.62,20.47h66.65l11.62-20.47h25.96c-1.47-2.59-11.8-20.78-12.98-22.86l2.66-4.69c4.61,2.62,19.95,11.32,24.8,14.08V37.86l-16.29,9.25ZM87.81,112.79l-5.74-1.73c-1.91-6.37-4.84-16.16-6.77-22.57,1.99-6.62,4.79-15.98,6.77-22.57.36-.11,5.61-1.67,5.74-1.72,0,0,4.39,0,4.39,0,1.04.13,5.1,1.52,6.2,1.79,1.99,6.65,4.74,15.82,6.75,22.5-1.95,6.49-4.82,16.08-6.75,22.5-.34.1-6.12,1.84-6.2,1.86,0,0-4.39-.06-4.39-.06Z"/>
</svg>