<?xml version="1.0" encoding="UTF-8"?>
<svg id="Calque_1" data-name="Calque 1" xmlns="http://www.w3.org/2000/svg" viewBox="0 0 180 180">
  <defs>
    <style>
      .cls-1 {
        fill: #ff1300;
      }
    </style>
  </defs>
  <path class="cls-1" d="M173.73,124.01c0-.66.01-68.07,0-68.68-.87-.92-48.13-48.15-49.03-49.04-1.42-.04-67.99-.04-69.4,0-.93.97-48.13,48.08-49.02,49.07,0,1.37,0,67.93,0,69.3.96,1.04,48.08,47.97,48.98,49.06,1.3,0,68.07,0,69.37,0,1.16-1.02,48.02-47.97,49.11-49.08v-.64ZM36.72,92.75v-25.18l.54-1.02,38,11.87v14.32h-38.54ZM110.1,108.3h0c-.8.8-18.84,18.84-20.1,20.11-1.35-1.35-19.22-19.23-20.1-20.11h0l-3.42-3.42h47.04l-3.42,3.42ZM143.27,92.75h-38.54v-14.32l38-11.87.54,1.02v25.18Z"/>
</svg>