<?xml version="1.0" encoding="UTF-8"?>
<svg id="Calque_1" data-name="Calque 1" xmlns="http://www.w3.org/2000/svg" viewBox="0 0 180 210">
  <defs>
    <style>
      .cls-1 {
        fill: #ff1300;
      }
    </style>
  </defs>
  <path class="cls-1" d="M25.64,123.28c0,22.27,11.18,41.37,43.63,55.17.95.4,2.03.34,2.76-.38.97-.97.91-2.6-.18-3.43-14.75-11.3-19.47-22.59-19.47-34.91,0-39.35,30.45-36.58,38.07-79.5,8.61,11.58,13.41,32.86-6.35,51.44,10.02-2.34,22.93-9.41,28.15-16.71,4.52,13.74-4.94,31.35-7.15,36.23,11.01-3.95,25.22-15.33,27.19-30.3,8.07,27.16-.28,53.08-26.18,74.09-1.87,1.52-.54,4.55,1.85,4.23.17-.02.33-.04.49-.07,14.41-1.93,46.89-22.45,46.89-63.39,0-23.05-13.99-44.32-26.98-55.43,0,13.18-11.71,21.51-21.12,23.81,7.91-9.6,11.58-21.74,7.6-34.83C107.47,25,70.94,2.44,70.94,2.44c0,0,4.87,8.29,4.87,23.97,0,33.88-50.17,56.04-50.17,96.87Z"/>
  <path class="cls-1" d="M109.9,164.92c.96-.94,1.89-1.89,2.78-2.85,1.04-5.13,1.89-10.65,2.52-16.5,3.34-.36,6.57-.8,9.69-1.29.35-.76.69-1.52,1.01-2.29-3.36.57-6.87,1.07-10.49,1.48.39-3.96.67-8.07.85-12.28-.68.43-1.37.86-2.07,1.26-.2,3.84-.49,7.6-.87,11.25-7.4.77-15.24,1.19-23.33,1.19s-15.93-.42-23.33-1.19c-.77-7.4-1.19-15.24-1.19-23.33,0-2.6.04-5.17.13-7.71-.73,1-1.43,2.02-2.08,3.07-.03,1.53-.05,3.08-.05,4.63,0,8.07.39,15.81,1.1,23.1-2.43-.28-4.8-.59-7.11-.94.05.7.11,1.41.21,2.14,2.32.34,4.69.64,7.13.9.73,6.75,1.75,13.07,3.01,18.85.86.89,1.79,1.79,2.8,2.7-1.57-6.43-2.83-13.62-3.71-21.34,7.29.71,15.03,1.1,23.1,1.1s15.81-.39,23.1-1.1c-.78,6.85-1.87,13.28-3.2,19.14Z"/>
  <path class="cls-1" d="M76.93,173.15c.33.65.56,1.35.68,2.09,4.04.45,8.17.7,12.39.7,3.52,0,6.98-.18,10.38-.5.14-.73.39-1.43.74-2.08-3.64.37-7.34.58-11.12.58-4.46,0-8.82-.28-13.07-.78Z"/>
  <path class="cls-1" d="M119.16,46.44c.16.47.34.94.48,1.41.11.36.19.72.29,1.08,27.91,11.73,47.56,39.32,47.56,71.44,0,3.97-3.19,7.75-8.75,11.1-.2.93-.4,1.84-.63,2.75,3.81-2.11,6.76-4.43,8.7-6.89-1.96,10.41-8.27,19.87-17.61,27.52-1.16,1.81-2.38,3.55-3.65,5.19,9-6.16,15.93-13.8,19.95-22.35-6.61,28.84-29.36,51.59-58.2,58.2,8.99-4.23,16.96-11.66,23.27-21.34-1.49,1.07-2.99,2.05-4.47,2.95-7.92,10.48-18,17.59-29.16,19.69,3.35-2.64,6.43-7.15,9.09-13.15-.69-.15-1.35-.4-1.97-.74-4.02,9.12-8.89,14.57-14.09,14.57-5.47,0-10.58-6.02-14.71-16.01-.54.48-1.14.88-1.78,1.18,2.77,6.51,6,11.38,9.53,14.16-11.85-2.24-22.49-10.09-30.6-21.65-1.39-.84-2.74-1.69-4.04-2.56,6.46,10.45,14.81,18.45,24.27,22.91-28.84-6.61-51.59-29.36-58.2-58.2,3.75,7.97,10.02,15.15,18.14,21.07-1.52-1.9-2.89-3.86-4.12-5.88-8.07-7.28-13.52-16.02-15.32-25.56,1.88,2.39,4.71,4.63,8.34,6.69-.15-.86-.28-1.73-.39-2.61-5.49-3.34-8.63-7.09-8.63-11.04,0-33.48,21.36-62.04,51.16-72.84.56-.9,1.1-1.8,1.62-2.7-31.76,10.42-54.78,40.34-54.78,75.54,0,43.83,35.66,79.49,79.49,79.49s79.49-35.66,79.49-79.49c0-33.54-20.89-62.27-50.33-73.93Z"/>
</svg>