<?xml version="1.0" encoding="UTF-8"?>
<svg id="Calque_1" data-name="Calque 1" xmlns="http://www.w3.org/2000/svg" viewBox="0 0 180 180">
  <defs>
    <style>
      .cls-1 {
        fill: #ff1300;
      }
    </style>
  </defs>
  <path class="cls-1" d="M120.78,59.41c1.41-.06,29.6-17.22,30.6-14.48.55,1.53,28.24,25.84,25.63,27.75,0,0-8.71,16.38-8.71,16.38,10.49,29.02,16.39,10.98-11.8,40.72-2.32,1.8-4.44,7.02-7.92,5.41,0,0-27.79-14.58-27.79-14.58l.11.76,14.42,27.48c.96,2.57-2.2,4.27-3.72,5.83-6.09,6.23-12.19,12.35-18.43,18.45-1.18,1.16-3.18,4.18-5,4.05l-18.17-9.24s-17.23,9.01-17.23,9.01c-1.41,3.39-26.4-25.06-27.66-25.34-.56-.77-.69-1.32-.53-2.27,4.37-9.71,10.65-18.91,14.63-28.72l-27.79,14.58c-1.4.81-2.28.23-3.39-.68L3.09,109.41c-1.81-1.24,8.72-17.99,8.97-19.4-.36-1.72-10.9-18.11-8.84-19.66,0,0,25.26-25.32,25.26-25.32,1.13-3.02,29.2,14.37,30.7,14.39.4-2.8-17.52-28.87-13.91-31.19,0,0,24.72-24.71,24.72-24.71.56-.49,1.25-.8,2.01-.66,0,0,17.94,9.22,17.94,9.22l18.01-9.22c1.6-1.87,25.5,25.21,26.82,25.47,3.53,1.93-14.45,28.71-14,31.09ZM100.89,79.1c-13.95,6.9-8.06,6.53-21.82,0,7.28,13.86,6.07,8.69.09,21.62,13.47-6,7.31-7.18,21.72.19-6.36-13.07-6.92-8.5,0-21.81Z"/>
</svg>