<?xml version="1.0" encoding="UTF-8"?>
<svg id="Calque_1" data-name="Calque 1" xmlns="http://www.w3.org/2000/svg" viewBox="0 0 180 180">
  <defs>
    <style>
      .cls-1 {
        fill: #ff1300;
      }
    </style>
  </defs>
  <path class="cls-1" d="M168.02,92.24l-.11-.39s0,0,0,0h0c-2.17-7.55-10.5-14.1-24.16-18.97l-.65-.22c-.14-.05-.28-.1-.42-.15,0,0,0,0,0,0,0,0,0,0,0,0,0,0,0,0,0,0-7.13-2.44-15.33-4.34-24.45-5.65l-.29-.04s0,0,0,0h-.02s0,0,0,0c-1.38-.2-2.77-.37-4.18-.54l-4.73-20.56,31.69,9.51v-20.44L89.59,5.77l-51.1,29.01v20.44l31.49-9.45-4.74,20.62c-1.05.13-2.1.27-3.14.41l-.39.05c-9.04,1.3-17.25,3.2-24.37,5.64-.15.05-.29.1-.4.14l-.77.27c-13.58,4.84-21.91,11.39-24.08,18.94l-.11.39c-.3,1.15-.45,2.34-.45,3.52,0,.33,0,.66,0,.99,0,.01,0,.02,0,.04.27,20.57,8.42,39.91,22.97,54.45,14.56,14.56,33.92,22.72,54.49,22.97.33,0,.66.01,1,.01s.66,0,.99-.01c.01,0,.03,0,.04,0,20.56-.27,39.9-8.42,54.45-22.97,14.56-14.56,22.72-33.92,22.97-54.49,0-.33.01-.66.01-.99,0-1.19-.15-2.37-.45-3.52ZM141.9,74.14c1.43,6.98,2.16,14.26,2.16,21.62s-.73,14.57-2.17,21.62c-6.71,2.28-14.37,4.08-22.82,5.35.89-6.51,1.44-13.28,1.66-20.22l1.42.42-1.33-5.8c0-.46.02-.91.02-1.38,0-9.3-.6-18.37-1.77-26.97,8.41,1.26,16.06,3.05,22.82,5.35ZM118.96,101.98c-.21,7.24-.79,14.28-1.72,21.02-8.66,1.2-17.81,1.82-27.24,1.82s-18.51-.61-27.24-1.82c-.95-6.84-1.53-13.98-1.73-21.32l28.46-8.5,29.46,8.8ZM66.34,147.21c-7.33-1.66-14.24-4.09-20.56-7.24-3.14-6.31-5.57-13.22-7.24-20.55,6.68,2.2,14.26,3.93,22.63,5.16,1.22,8.33,2.96,15.93,5.16,22.63ZM63.03,124.84c8.6,1.17,17.67,1.77,26.97,1.77s18.38-.6,26.97-1.77c-1.26,8.42-3.05,16.09-5.34,22.82-13.98,2.87-29.28,2.86-43.25,0-2.29-6.72-4.08-14.39-5.34-22.82ZM118.82,124.59c8.33-1.22,15.93-2.96,22.63-5.16-1.66,7.33-4.09,14.23-7.23,20.55-6.31,3.15-13.21,5.57-20.56,7.24,2.2-6.69,3.93-14.27,5.16-22.63ZM117.24,68.53c.91,6.56,1.48,13.4,1.71,20.43l-4.79-20.83c1.03.13,2.06.26,3.08.4ZM62.76,68.53c.68-.09,1.36-.18,2.04-.26l-3.5,15.2c.3-5.11.78-10.1,1.45-14.94ZM38.1,74.14c6.72-2.28,14.38-4.08,22.82-5.34-1.04,7.63-1.6,15.63-1.72,23.83l-2.37,10.31,2.43-.72c.21,7.05.77,13.92,1.67,20.52-8.42-1.26-16.09-3.06-22.82-5.34-1.43-6.99-2.17-14.26-2.17-21.63s.73-14.57,2.17-21.63ZM36.14,74.83c-1.32,6.78-2,13.81-2,20.93s.68,14.15,2,20.93c-14.71-5.38-22.81-12.79-22.81-20.93s8.1-15.55,22.81-20.93ZM36.17,118.62c.13.05.26.09.39.13,1.51,7.02,3.72,13.68,6.58,19.83-2.43-1.32-4.77-2.76-6.98-4.29-11.72-8.14-19.35-18.66-21.88-30.02,3.72,5.62,11.16,10.52,21.9,14.35ZM35.78,149.98c-10.4-10.4-17.4-23.08-20.55-37.09,3.84,8.62,10.58,16.41,19.89,22.88,2.91,2.02,6.05,3.88,9.32,5.54,1.66,3.28,3.52,6.42,5.55,9.33,6.47,9.31,14.26,16.06,22.89,19.9-14.01-3.15-26.69-10.15-37.1-20.56ZM51.47,149.62c-1.53-2.2-2.97-4.55-4.3-6.99,6.15,2.85,12.81,5.06,19.84,6.58l.13.39c3.83,10.74,8.73,18.17,14.39,21.91-11.38-2.52-21.91-10.15-30.06-21.89ZM90.07,172.43s-.08,0-.12,0c-8.12-.04-15.51-8.13-20.87-22.81,6.78,1.32,13.81,2,20.93,2s14.17-.68,20.93-2c-5.36,14.67-12.75,22.76-20.87,22.81ZM112.89,149.5c.04-.1.07-.19.1-.29,7.03-1.52,13.69-3.73,19.84-6.58-1.33,2.44-2.77,4.78-4.3,6.99-8.14,11.72-18.66,19.35-30.02,21.88,5.62-3.72,10.52-11.18,14.38-21.99ZM144.22,149.98c-10.4,10.4-23.08,17.4-37.09,20.55,8.62-3.84,16.41-10.58,22.88-19.89,2.02-2.91,3.88-6.05,5.55-9.32,3.27-1.66,6.41-3.52,9.32-5.54,9.31-6.47,16.06-14.26,19.9-22.9-3.15,14.01-10.15,26.7-20.56,37.1ZM143.85,134.3c-2.2,1.53-4.54,2.96-6.98,4.29,2.85-6.15,5.06-12.81,6.58-19.83.13-.04.26-.09.39-.13.05-.02.11-.04.17-.06,10.65-3.82,18.03-8.7,21.74-14.29-2.53,11.36-10.16,21.88-21.88,30.02ZM143.86,116.69c1.32-6.78,2-13.82,2-20.93s-.68-14.15-2-20.93c14.71,5.38,22.81,12.79,22.81,20.93s-8.1,15.55-22.81,20.93Z"/>
</svg>