<?xml version="1.0" encoding="UTF-8"?>
<svg id="Calque_1" data-name="Calque 1" xmlns="http://www.w3.org/2000/svg" viewBox="0 0 180 180">
  <defs>
    <style>
      .cls-1 {
        fill: #ff1300;
      }
    </style>
  </defs>
  <path class="cls-1" d="M6.28,65.19l-.46-.14V30.85l.46-.14-.22-.43L30.24,6.09l.43.22.14-.46h34.2l.14.46.43-.22,23.43,23.43v26.31c-17.88.51-32.34,14.7-33.25,32.49h-27l-22.71-22.71.22-.43ZM90.99,55.84c17.88.51,32.34,14.7,33.25,32.49h27l22.71-22.71-.22-.43.46-.14V30.85l-.46-.14.22-.43-24.18-24.18-.43.22-.14-.46h-34.2l-.14.46-.43-.22-23.43,23.43v26.32ZM89.01,124.35c-18.41-.52-33.18-15.54-33.29-34.05h-25.02l-.04.12c-.12-.1-.38-.15-.53-.12l-24.08,24.08.22.43-.46.14v34.2l.46.14-.22.43,24.18,24.18.43-.22.14.46h34.2l.14-.46.43.22,23.43-23.43v-26.13ZM173.95,114.38l-24.08-24.08c-.15-.02-.41.02-.53.12l-.04-.12h-25.02c-.11,18.51-14.88,33.53-33.29,34.05v26.13l23.43,23.43.43-.22.14.46h34.2l.14-.46.43.22,24.18-24.18-.22-.43.46-.14v-34.2l-.46-.14.22-.43Z"/>
</svg>