<?xml version="1.0" encoding="UTF-8"?>
<svg id="Calque_1" data-name="Calque 1" xmlns="http://www.w3.org/2000/svg" viewBox="0 0 180 180">
  <defs>
    <style>
      .cls-1 {
        fill: #ff1300;
      }
    </style>
  </defs>
  <path class="cls-1" d="M173.33,55.73l-36.71-11.47-11.47-36.71c-.19-.6-.74-1.01-1.37-1.01H56.56c-.63,0-1.18.41-1.37,1.01l-11.47,36.71L7.01,55.73c-.6.19-1.01.74-1.01,1.37v67.22c0,.63.41,1.18,1.01,1.37l36.71,11.47,11.47,36.71c.19.6.74,1.01,1.37,1.01h67.22c.63,0,1.18-.41,1.37-1.01l11.47-36.71,36.71-11.47c.6-.19,1.01-.74,1.01-1.37V57.1c0-.63-.41-1.18-1.01-1.37Z"/>
  <polygon class="cls-1" points="7.01 26.85 5.01 26.85 5.01 5.05 26.9 5.05 26.9 7.05 7.01 7.05 7.01 26.85"/>
  <polygon class="cls-1" points="174.99 26.85 172.99 26.85 172.99 7.05 153.1 7.05 153.1 5.05 174.99 5.05 174.99 26.85"/>
  <polygon class="cls-1" points="26.9 174.95 5.01 174.95 5.01 153.15 7.01 153.15 7.01 172.95 26.9 172.95 26.9 174.95"/>
  <polygon class="cls-1" points="174.99 174.95 153.1 174.95 153.1 172.95 172.99 172.95 172.99 153.15 174.99 153.15 174.99 174.95"/>
</svg>