<?xml version="1.0" encoding="UTF-8"?>
<svg id="Calque_1" data-name="Calque 1" xmlns="http://www.w3.org/2000/svg" viewBox="0 0 180 180">
  <defs>
    <style>
      .cls-1 {
        fill: #ff1300;
      }
    </style>
  </defs>
  <path class="cls-1" d="M61.23,6.58c-.13-.26-.38-.43-.67-.48-.29-.04-.58.05-.78.26l-26.61,26.61L6.56,59.59c-.2.2-.3.49-.26.78.04.29.22.53.48.67l48.6,25.46c.13.07.28.1.42.1.24,0,.47-.09.64-.27l15.04-15.04,15.04-15.04c.28-.28.35-.71.16-1.06L61.23,6.58Z"/>
  <path class="cls-1" d="M71.49,108.71l-15.04-15.04c-.28-.28-.71-.35-1.06-.16L6.78,118.96c-.26.13-.43.38-.48.67-.04.29.05.58.26.78l26.61,26.61,26.61,26.61c.17.17.4.27.64.27.05,0,.09,0,.14-.01.29-.04.53-.22.67-.48l25.46-48.6c.18-.35.12-.78-.16-1.06l-15.04-15.04Z"/>
  <path class="cls-1" d="M173.22,118.96l-48.6-25.46c-.35-.18-.78-.12-1.06.16l-15.04,15.04-15.04,15.04c-.28.28-.35.71-.16,1.06l25.46,48.6c.13.26.38.43.67.48.05,0,.09.01.14.01.24,0,.47-.09.64-.27l26.61-26.61,26.61-26.61c.2-.2.3-.49.26-.78-.04-.29-.22-.53-.48-.67Z"/>
  <path class="cls-1" d="M108.51,71.29l15.04,15.04c.17.17.41.27.64.27.14,0,.29-.03.42-.1l48.6-25.46c.26-.13.43-.38.48-.67.04-.29-.05-.58-.26-.78l-26.61-26.61-26.61-26.61c-.2-.2-.49-.3-.78-.26-.29.04-.53.22-.67.48l-25.46,48.6c-.18.35-.12.78.16,1.06l15.04,15.04Z"/>
</svg>