<?xml version="1.0" encoding="UTF-8"?>
<svg id="Calque_1" data-name="Calque 1" xmlns="http://www.w3.org/2000/svg" viewBox="0 0 180 180">
  <defs>
    <style>
      .cls-1 {
        fill: #ff1300;
      }
    </style>
  </defs>
  <path class="cls-1" d="M158.58,90l18.63-35.56c.3-.58.19-1.29-.27-1.76l-24.81-24.81L127.32,3.07c-.46-.46-1.18-.57-1.75-.27l-35.56,18.63L54.44,2.8c-.58-.31-1.29-.2-1.75.27l-24.81,24.81L3.07,52.68c-.46.46-.57,1.18-.27,1.76l18.63,35.56L2.8,125.56c-.3.58-.19,1.29.27,1.76l24.81,24.81,24.81,24.81c.29.29.67.44,1.06.44.92.13,35.44-18.6,36.26-18.8.68.17,35.52,18.96,36.25,18.8.39,0,.78-.15,1.06-.44l24.81-24.81,24.81-24.81c.46-.46.57-1.18.27-1.76l-18.63-35.56ZM143.28,67.26v25.18h-38.54v-14.32l38-11.87.54,1.02ZM69.9,107.98h0l-3.42-3.42h47.04l-3.42,3.42h0c-.8.8-18.84,18.84-20.1,20.11-1.35-1.35-19.23-19.23-20.1-20.11ZM37.26,66.24l38,11.87v14.32h-38.54v-25.18l.54-1.02Z"/>
</svg>