<?xml version="1.0" encoding="UTF-8"?>
<svg id="Calque_1" data-name="Calque 1" xmlns="http://www.w3.org/2000/svg" viewBox="0 0 180 180">
  <defs>
    <style>
      .cls-1 {
        fill: #fcfcfc;
      }
    </style>
  </defs>
  <path class="cls-1" d="M173.79,55.8l-37.78-11.81-11.81-37.78c-.02-.38-34.03.01-34.19-.13-.18.14-34.15-.25-34.21.13,0,0-11.81,37.79-11.81,37.79,0,0-37.76,11.8-37.76,11.8-.39,0-.02,34.03-.14,34.19.16.18-.28,34.17.14,34.21,0,0,37.78,11.8,37.78,11.8l11.8,37.78c0,.43,34.05-.01,34.21.14.18-.14,34.17.26,34.19-.14,0,0,11.8-37.76,11.8-37.76.13-.19,38.01-11.6,37.92-12-.13-17.01.24-51.31-.12-68.21ZM36.72,92.15v-25.18l.54-1.02,38,11.87v14.32h-38.53ZM110.11,107.7h0c-.8.8-18.84,18.84-20.1,20.11-1.35-1.35-19.23-19.23-20.1-20.11h0l-3.42-3.42h47.04l-3.42,3.42ZM143.28,92.15h-38.54v-14.32l38-11.87.54,1.02v25.18Z"/>
</svg>