<?xml version="1.0" encoding="UTF-8"?>
<svg id="Calque_1" data-name="Calque 1" xmlns="http://www.w3.org/2000/svg" viewBox="0 0 180 180">
  <defs>
    <style>
      .cls-1 {
        fill: #fcfcfc;
      }
    </style>
  </defs>
  <path class="cls-1" d="M176.99,89.39l-.03-.1-.43-1.34-18.62-59.6-.74-2.39-.74-2.39-2.39-.74-2.39-.74L92.06,3.46l-1.42-.44h-.03c-.19-.07-.4-.1-.6-.1h-.03c-.2,0-.41.03-.6.09-.01,0-.03.01-.03.01l-1.42.44L28.35,22.08l-2.39.74-2.39.74-.74,2.39-.74,2.39L3.47,87.95l-.43,1.34-.03.1c-.07.2-.1.41-.1.62,0,.24.04.49.13.7l.43,1.34,18.62,59.6.74,2.39.74,2.39,2.39.74,2.39.74,59.59,18.62,1.44.46c.09.01.16.03.24.04.11.03.24.04.37.04s.26-.01.37-.04c.09,0,.17-.01.24-.04l1.44-.46,59.59-18.62,2.39-.74,2.39-.74.74-2.39.74-2.39,18.62-59.6.43-1.34c.09-.21.13-.46.13-.7,0-.2-.03-.41-.1-.62ZM123.27,47.48l12.53,18.01-21.35,26.86-7.51-10.79,16.32-34.08ZM91.68,38.08l12.59,31.92-13.1,1.11-21.36-31.18,21.87-1.85ZM56.73,132.52l-12.53-18.01,21.35-26.86,7.51,10.79-16.32,34.08ZM36.54,82.45l9.33-19.86,33.93,5.06-5.59,11.9-37.68,2.91ZM88.32,141.92l-12.59-31.92,13.1-1.11,21.36,31.18-21.87,1.85ZM134.12,117.41l-33.93-5.06,5.59-11.9,37.68-2.91-9.33,19.86Z"/>
</svg>