<?xml version="1.0" encoding="UTF-8"?>
<svg id="Calque_1" data-name="Calque 1" xmlns="http://www.w3.org/2000/svg" viewBox="0 0 180 180">
  <defs>
    <style>
      .cls-1 {
        fill: #fcfcfc;
      }
    </style>
  </defs>
  <path class="cls-1" d="M169.41,90.32l-.11-.4s0,0,0,0c-2.21-7.68-10.68-14.35-24.59-19.31l-.66-.23c-.14-.06-.28-.1-.43-.15,0,0,0,0-.01,0h0c-4.13-1.41-8.61-2.64-13.41-3.69-2.33-4.17-5.15-8.47-8.38-12.8-.06-.08-.12-.16-.18-.24.06-.08.12-.16.18-.23,4.33-5.79,7.92-11.54,10.57-16.98.05-.1.1-.2.15-.3l.21-.43c5.55-11.7,6.03-20.82,1.39-25.75-.07-.07-.14-.15-.21-.22-.07-.07-.14-.14-.22-.21-4.93-4.65-14.05-4.16-25.75,1.39l-.43.21c-.1.05-.2.09-.3.15-5.44,2.65-11.19,6.24-16.98,10.57-.08.06-.16.12-.23.18-.08-.06-.16-.12-.24-.18-5.79-4.33-11.54-7.92-16.98-10.57-.1-.05-.2-.1-.3-.15l-.43-.21c-11.68-5.54-20.8-6.03-25.73-1.4-.08.07-.15.15-.23.23-.05.05-.11.11-.16.17l-.05.05c-4.65,4.92-4.16,14.05,1.39,25.75l.21.43c.05.1.09.2.15.3,2.65,5.44,6.24,11.19,10.57,16.98.06.08.12.16.18.23-.06.08-.12.16-.18.24-3.24,4.33-6.06,8.63-8.38,12.8-4.79,1.05-9.29,2.27-13.41,3.69-.15.05-.3.1-.41.14l-.78.27c-13.82,4.93-22.3,11.6-24.51,19.28l-.11.4c-.3,1.17-.46,2.38-.46,3.59,0,.34,0,.67.01,1.01,0,.01,0,.02,0,.04.27,20.94,8.57,40.62,23.38,55.43,14.82,14.82,34.52,23.12,55.46,23.38.34,0,.67.01,1.01.01s.67,0,1.01-.01c.01,0,.03,0,.04,0,20.93-.27,40.61-8.57,55.42-23.38,14.82-14.82,23.12-34.52,23.38-55.47,0-.34.01-.67.01-1.01,0-1.21-.15-2.41-.46-3.59ZM142.83,71.9c1.46,7.11,2.2,14.51,2.2,22.01s-.74,14.84-2.2,22.01c-6.83,2.33-14.63,4.15-23.23,5.44.91-6.7,1.48-13.67,1.7-20.82,5.31.72,9.55-.25,12.39-2.92.07-.07.15-.14.22-.21.07-.07.14-.14.21-.22,4.65-4.92,4.16-14.05-1.39-25.75-.07-.14-.14-.28-.2-.43-.05-.1-.1-.2-.15-.3-.33-.68-.67-1.36-1.03-2.04,4.06.93,7.9,2.01,11.49,3.23ZM72.06,96.23l.43-.21c.1-.05.2-.09.3-.15,5.44-2.65,11.19-6.24,16.97-10.57.08-.06.16-.11.24-.18.08.06.16.12.24.18,5.79,4.33,11.54,7.92,16.98,10.57.1.05.2.1.3.15l.43.21c4.21,1.99,8.07,3.32,11.54,4.01-.21,7.37-.8,14.54-1.75,21.4-8.81,1.23-18.13,1.85-27.72,1.85s-18.84-.62-27.72-1.85c-.95-6.86-1.54-14.03-1.75-21.39,3.47-.68,7.33-2.01,11.54-4.01ZM65.91,146.27c-7.46-1.69-14.49-4.16-20.92-7.37-3.2-6.42-5.67-13.46-7.36-20.92,6.8,2.24,14.51,4,23.03,5.26,1.24,8.47,3.01,16.21,5.25,23.03ZM62.55,123.5c8.76,1.19,17.98,1.8,27.45,1.8s18.71-.61,27.45-1.8c-1.28,8.57-3.11,16.38-5.44,23.23-14.23,2.92-29.81,2.92-44.02,0-2.33-6.84-4.15-14.65-5.44-23.23ZM119.34,123.24c8.48-1.25,16.22-3.02,23.03-5.26-1.69,7.46-4.16,14.49-7.36,20.92-6.42,3.2-13.45,5.67-20.92,7.37,2.24-6.81,4-14.52,5.25-23.03ZM37.17,71.89c3.57-1.21,7.41-2.29,11.49-3.22-.36.69-.7,1.37-1.03,2.04-.05.1-.1.2-.15.3l-.21.43c-5.55,11.7-6.03,20.82-1.39,25.75.07.07.14.15.21.22.07.07.14.14.22.21,2.84,2.68,7.08,3.64,12.39,2.92.22,7.15.79,14.13,1.7,20.82-8.57-1.29-16.38-3.11-23.23-5.44-1.46-7.11-2.2-14.52-2.2-22.01s.74-14.83,2.21-22.01ZM35.17,72.6c-1.34,6.9-2.03,14.06-2.03,21.31s.69,14.41,2.03,21.31c-14.97-5.47-23.22-13.02-23.22-21.31s8.25-15.83,23.22-21.31ZM35.21,117.17c.14.05.26.09.39.14,1.54,7.15,3.79,13.92,6.69,20.19-2.47-1.35-4.85-2.81-7.11-4.37-11.93-8.29-19.69-18.99-22.27-30.56,3.79,5.72,11.36,10.7,22.29,14.6ZM34.82,149.09c-10.58-10.59-17.71-23.49-20.92-37.75,3.91,8.78,10.77,16.71,20.25,23.29,2.97,2.06,6.16,3.95,9.49,5.64,1.69,3.34,3.59,6.53,5.64,9.49,6.58,9.48,14.52,16.34,23.3,20.25-14.26-3.21-27.17-10.33-37.76-20.92ZM50.78,148.72c-1.56-2.24-3.02-4.63-4.37-7.11,6.26,2.9,13.04,5.15,20.19,6.7l.14.4c3.9,10.93,8.88,18.5,14.64,22.3-11.58-2.57-22.3-10.33-30.6-22.28ZM90.07,171.94s-.08,0-.12,0c-8.26-.04-15.79-8.28-21.25-23.21,6.9,1.34,14.06,2.03,21.3,2.03s14.42-.69,21.31-2.03c-5.46,14.93-12.98,23.17-21.24,23.21ZM113.3,148.6c.04-.1.07-.2.1-.3,7.16-1.54,13.94-3.8,20.19-6.7-1.35,2.48-2.82,4.87-4.38,7.11-8.29,11.93-18.99,19.69-30.56,22.27,5.72-3.79,10.71-11.38,14.64-22.39ZM145.18,149.09c-10.58,10.58-23.49,17.71-37.75,20.92,8.78-3.91,16.71-10.77,23.29-20.25,2.06-2.96,3.95-6.15,5.64-9.49,3.33-1.69,6.52-3.58,9.49-5.64,9.48-6.59,16.34-14.52,20.25-23.31-3.21,14.26-10.33,27.17-20.92,37.77ZM144.81,133.13c-2.24,1.56-4.63,3.02-7.11,4.37,2.9-6.26,5.15-13.04,6.69-20.19.13-.05.26-.09.4-.14.06-.02.11-.04.17-.06,10.84-3.89,18.35-8.86,22.12-14.54-2.58,11.56-10.34,22.27-22.27,30.56ZM144.83,115.21c1.34-6.9,2.04-14.06,2.04-21.3s-.69-14.4-2.04-21.3c14.97,5.47,23.22,13.02,23.22,21.3s-8.25,15.83-23.22,21.3Z"/>
</svg>