<?xml version="1.0" encoding="UTF-8"?>
<svg id="Calque_1" data-name="Calque 1" xmlns="http://www.w3.org/2000/svg" viewBox="0 0 920 90">
  <defs>
    <style>
      .cls-1 {
        fill: #fcfcfc;
      }
    </style>
  </defs>
  <path class="cls-1" d="M461,22.26h-16.39v-13.6h-2v13.6h-27.04v-13.6h-2v13.6h-27.04v-13.6h-2v13.6h-27.04v-13.6h-2v13.6h-27.04v-13.6h-2v13.6h-27.04v-13.6h-2v13.6h-27.04v-13.6h-2v13.6h-27.04v-13.6h-2v13.6h-27.04v-13.6h-2v13.6h-27.04v-13.6h-2v13.6h-27.04v-13.6h-2v13.6h-27.04v-13.6h-2v13.6h-27.04v-13.6h-2v13.6h-27.04v-13.6h-2v13.6h-27.04v-13.6h-2v13.6h-17.23v29.54h2v-27.54h438.18v57.07h442.18V22.26h-440.18ZM899.18,79.33h-438.18V24.26h438.18v55.07Z"/>
</svg>