<?xml version="1.0" encoding="UTF-8"?>
<svg id="Calque_1" data-name="Calque 1" xmlns="http://www.w3.org/2000/svg" viewBox="0 0 180 180">
  <defs>
    <style>
      .cls-1 {
        fill: #fcfcfc;
      }
    </style>
  </defs>
  <path class="cls-1" d="M166.77,47.88c-1.33-.39-9.33-2.79-10.83-3.24l-4.91-16.67-14.73-3.45c-1.6-5.32-4.21-14.08-5.81-19.38H49.62c-1.58,5.22-4.13,13.8-5.7,19.02l-16.25,3.81-5.03,17.1c-4.86,1.46-12.82,3.83-17.7,5.31v80.87c4.98,1.51,13.08,3.92,18.05,5.41l4.68,15.9,16.43,3.85c1.53,5.08,3.99,13.37,5.53,18.45h80.87c1.56-5.17,4.08-13.63,5.64-18.8l14.9-3.49,4.55-15.47c5.35-1.61,14.16-4.23,19.49-5.84V50.38s-8.28-2.49-8.3-2.49ZM97.54,119.12h-14.98l-8.41-28.03,8.44-28.14h14.92l8.44,28.14-8.41,28.03Z"/>
</svg>